<svg width="97.187" height="97.187" xmlns="http://www.w3.org/2000/svg" xml:space="preserve" version="1.1">

 <g>
  <title>Layer 1</title>
  <g id="svg_1">
   <rect id="svg_2" height="6" width="42.947" y="47.611" x="20.184"/>
   <rect id="svg_3" height="6" width="42.947" y="34.575" x="20.184"/>
   <path id="svg_4" d="m83.444,69.827l-3.032,0l0,-3.032l0,-6l-4.84,0l0,-37.403l-20.927,-23.392l-35.517,0c-6.277,0 -11.384,5.107 -11.384,11.384l0,61.828c0,6.277 5.107,11.384 11.384,11.384l33.925,0l0,3.559l6,0l3.033,0l0,3.032l0,6l6,0l6.326,0l6,0l0,-6l0,-3.032l3.032,0l6,0l0,-6l0,-6.327l0,-6l-5.999,0l0,-0.001l-0.001,0zm-27.142,-58.974l9.561,10.685l-9.561,0l0,-10.685zm-3.25,58.974l0,6l0,2.769l-33.924,0c-2.969,0 -5.384,-2.415 -5.384,-5.384l0,-61.828c0,-2.969 2.415,-5.384 5.384,-5.384l31.175,0l0,21.538l19.27,0l0,33.257l-1.486,0l-4.954,0l0,-0.146l-42.949,0l0,6l41.901,0l0,0.146l0,3.032l-3.033,0l-6,0zm30.392,12.327l-9.032,0l0,9.032l-6.326,0l0,-9.032l-9.033,0l0,-6.327l9.033,0l0,-9.032l6.326,0l0,9.032l9.032,0c0.001,0 0.001,6.327 0,6.327z"/>
  </g>
  <g id="svg_5"/>
  <g id="svg_6"/>
  <g id="svg_7"/>
  <g id="svg_8"/>
  <g id="svg_9"/>
  <g id="svg_10"/>
  <g id="svg_11"/>
  <g id="svg_12"/>
  <g id="svg_13"/>
  <g id="svg_14"/>
  <g id="svg_15"/>
  <g id="svg_16"/>
  <g id="svg_17"/>
  <g id="svg_18"/>
  <g id="svg_19"/>
 </g>
</svg>